<svg width="32" height="32" viewBox="0 0 32 32" fill="none" xmlns="http://www.w3.org/2000/svg">
<rect width="32" height="32" fill="white"/>
<path fill-rule="evenodd" clip-rule="evenodd" d="M12.5996 11C13.0642 11 13.4824 11.0465 13.8541 11.1394C14.2258 11.2323 14.551 11.3717 14.8298 11.5575C15.1085 11.7434 15.2944 12.0221 15.4802 12.3009C15.6196 12.6261 15.7125 12.9978 15.7125 13.4624C15.7125 13.9735 15.6196 14.3917 15.3873 14.7169C15.155 15.0421 14.8298 15.3209 14.4116 15.5532C15.0156 15.739 15.4338 16.0642 15.759 16.4824C16.0377 16.947 16.1771 17.4581 16.1771 18.1085C16.1771 18.6196 16.0842 19.0377 15.8984 19.4094C15.7125 19.7811 15.4338 20.1064 15.1085 20.3387C14.7833 20.571 14.4116 20.7568 13.9935 20.8497C13.5753 20.9426 13.1572 21.0356 12.739 21.0356H8V11H12.5996ZM12.3209 15.0421C12.6926 15.0421 13.0178 14.9492 13.2501 14.7633C13.4824 14.5775 13.6218 14.2523 13.6218 13.8341C13.6218 13.6018 13.5753 13.416 13.4824 13.2766C13.3895 13.1372 13.2966 12.9978 13.1572 12.9049C13.0178 12.812 12.8784 12.7655 12.6926 12.7191C12.5067 12.6726 12.3209 12.6726 12.135 12.6726H10.1372V14.9956H12.3209V15.0421ZM12.4138 19.3165H12.4138V19.2701H10.1372V16.5289H12.4603C12.9249 16.5289 13.2966 16.6218 13.5753 16.8541C13.8541 17.0864 13.9935 17.4581 13.9935 17.9691C13.9935 18.2479 13.947 18.4338 13.8541 18.6196C13.8076 18.8054 13.6682 18.9448 13.5289 19.0378C13.3895 19.1771 13.2036 19.2236 13.0178 19.2701C12.8319 19.3165 12.6461 19.3165 12.4138 19.3165ZM20.4515 19.6882C19.894 19.6882 19.4759 19.5488 19.1971 19.2701C18.9183 18.9913 18.686 18.4338 18.686 17.8762H23.9826C24.029 17.3187 23.9826 16.7612 23.8432 16.2501C23.7503 15.739 23.518 15.2744 23.2392 14.8563C22.914 14.4381 22.5887 14.1129 22.1241 13.8806C21.6595 13.6483 21.1485 13.5089 20.5445 13.5089C19.9869 13.5089 19.5223 13.6018 19.0577 13.7877C18.5931 13.9735 18.2214 14.2523 17.8962 14.5775C17.571 14.9027 17.3387 15.3209 17.1528 15.7855C16.967 16.2501 16.874 16.7612 16.874 17.3187C16.874 17.8762 16.9205 18.3873 17.1064 18.8519C17.2457 19.3165 17.478 19.7347 17.8033 20.0599C18.082 20.3851 18.4537 20.6639 18.9183 20.8497C19.3365 21.0356 19.8475 21.1285 20.4051 21.1285C21.1949 21.1285 21.8918 20.9426 22.4494 20.571C23.0069 20.1993 23.425 19.5953 23.7038 18.7125H21.9848C21.9383 18.9448 21.7524 19.1771 21.4737 19.363C21.1949 19.5953 20.8232 19.6882 20.4515 19.6882ZM20.3122 15.0421C20.8232 15.0421 21.1949 15.1815 21.4272 15.4603C21.6595 15.739 21.7989 16.1107 21.7989 16.6218H18.6396C18.6396 16.5115 18.6687 16.4012 18.7038 16.2679C18.7131 16.2327 18.7228 16.196 18.7325 16.1572C18.7789 15.9713 18.8719 15.7855 19.0113 15.6461C19.1506 15.4603 19.3365 15.3209 19.5223 15.2279C19.7546 15.0886 19.9869 15.0421 20.3122 15.0421ZM22.2635 11.6505H18.3143V12.6261H22.2635V11.6505Z" fill="black"/>
</svg>
