<svg width="32" height="32" viewBox="0 0 32 32" fill="none" xmlns="http://www.w3.org/2000/svg">
<rect width="32" height="32" fill="white"/>
<path fill-rule="evenodd" clip-rule="evenodd" d="M16 24C11.5765 24 8 20.4235 8 16C8 11.5765 11.5765 8 16 8C20.4235 8 24 11.5765 24 16C24 20.4235 20.4235 24 16 24ZM22.7294 17.0824C22.4941 16.9882 20.6118 16.4706 18.4941 16.8C19.3882 19.2471 19.7647 21.2706 19.8118 21.6941C21.3647 20.6588 22.4471 19.0118 22.7294 17.0824ZM18.6824 22.3059C18.5882 21.6941 18.1647 19.6235 17.2235 17.1294H17.1765C13.3176 18.4941 11.9529 21.1294 11.8118 21.4118C12.9882 22.3059 14.4471 22.8706 16 22.8706C16.9412 22.8235 17.8353 22.6353 18.6824 22.3059ZM10.9176 20.5647C11.0588 20.2824 12.9412 17.1765 16.4706 16.0471C16.5647 16 16.6588 16 16.7529 15.9529C16.5647 15.5765 16.3765 15.1529 16.1882 14.7765C12.7529 15.8118 9.45882 15.7647 9.17647 15.7647C9.17647 15.8118 9.17647 15.9059 9.17647 15.9529C9.17647 17.7882 9.83529 19.3882 10.9176 20.5647ZM9.31765 14.5882C9.6 14.5882 12.4235 14.5882 15.6235 13.7412C14.4941 11.7176 13.2706 10.0235 13.0824 9.78824C11.2 10.7294 9.74118 12.4706 9.31765 14.5882ZM14.4 9.36471C14.5882 9.6 15.8118 11.2941 16.9412 13.3647C19.3882 12.4706 20.3765 11.0588 20.5176 10.9176C19.2941 9.83529 17.7412 9.17647 16 9.17647C15.4353 9.17647 14.9176 9.22353 14.4 9.36471ZM21.2706 11.6706C21.1294 11.8588 20 13.3176 17.4588 14.3529C17.6 14.6824 17.7882 15.0118 17.9294 15.3412C17.9765 15.4824 18.0235 15.5765 18.0706 15.6706C20.3294 15.3882 22.5882 15.8588 22.8235 15.9059C22.8235 14.3529 22.2588 12.8471 21.2706 11.6706Z" fill="black"/>
</svg>
