<svg width="32" height="32" viewBox="0 0 32 32" fill="none" xmlns="http://www.w3.org/2000/svg">
<rect width="32" height="32" fill="white"/>
<path fill-rule="evenodd" clip-rule="evenodd" d="M22.5412 9.45882C22.0706 9.03529 21.6 8.65882 20.9882 8.42353C20.3765 8.18824 19.7647 8.04706 18.9647 8.04706C18.1647 8 17.9294 8 16 8C14.0706 8 13.8353 8 13.0353 8.04706C12.2353 8.09412 11.6235 8.18824 11.0118 8.42353C10.4 8.65882 9.88235 8.98824 9.45882 9.45882C9.03529 9.92941 8.65882 10.4 8.42353 11.0118C8.18824 11.6235 8.04706 12.2353 8.04706 13.0353C8 13.8353 8 14.0706 8 16C8 17.9294 8 18.1647 8.04706 18.9647C8.09412 19.7647 8.18824 20.3765 8.42353 20.9882C8.65882 21.6 8.98824 22.1176 9.45882 22.5412C9.92941 22.9647 10.4 23.3412 11.0118 23.5765C11.6235 23.8118 12.2353 23.9529 13.0353 23.9529C13.8353 24 14.0706 24 16 24C17.9294 24 18.1647 24 18.9647 23.9529C19.7647 23.9059 20.3765 23.8118 20.9882 23.5765C21.6 23.3412 22.1176 23.0118 22.5412 22.5412C22.9647 22.0706 23.3412 21.6 23.5765 20.9882C23.8118 20.3765 23.9529 19.7647 23.9529 18.9647C24 18.1647 24 17.9294 24 16C24 14.0706 24 13.8353 23.9529 13.0353C23.9059 12.2353 23.8118 11.6235 23.5765 11.0118C23.3412 10.4 23.0118 9.88235 22.5412 9.45882ZM22.0706 18.8706C22.0235 19.6235 21.9294 20 21.7882 20.2824C21.6471 20.6588 21.4588 20.9412 21.1765 21.2235C20.8941 21.5059 20.6118 21.6941 20.2353 21.8353L20.179 21.8542C19.9024 21.9474 19.5275 22.0736 18.8235 22.1176H16C14.1176 22.1176 13.8824 22.1176 13.1294 22.0706C12.3765 22.0235 12 21.9294 11.7176 21.7882C11.3412 21.6471 11.0588 21.4588 10.7765 21.1765C10.4941 20.8941 10.3059 20.6118 10.1647 20.2353L10.1458 20.179C10.0526 19.9024 9.92635 19.5275 9.88235 18.8235V16C9.88235 14.1176 9.88235 13.8824 9.92941 13.1294C9.97647 12.3765 10.0706 12 10.2118 11.7176C10.3529 11.3412 10.5412 11.0588 10.8235 10.7765C11.1059 10.4941 11.3882 10.3059 11.7647 10.1647L11.821 10.1458C12.0976 10.0526 12.4725 9.92635 13.1765 9.88235H16C17.8824 9.88235 18.1176 9.88235 18.8706 9.92941C19.6235 9.97647 20 10.0706 20.2824 10.2118C20.6588 10.3529 20.9412 10.5412 21.2235 10.8235C21.5059 11.1059 21.6941 11.3882 21.8353 11.7647L21.8542 11.821C21.9474 12.0976 22.0736 12.4725 22.1176 13.1765V16C22.1176 17.8824 22.1176 18.1176 22.0706 18.8706ZM20 12.8941C20.4938 12.8941 20.8941 12.4938 20.8941 12C20.8941 11.5062 20.4938 11.1059 20 11.1059C19.5062 11.1059 19.1059 11.5062 19.1059 12C19.1059 12.4938 19.5062 12.8941 20 12.8941ZM11.8588 16C11.8588 13.6941 13.6941 11.8588 16 11.8588C18.3059 11.8588 20.1412 13.6941 20.1412 16C20.1412 18.3059 18.3059 20.1412 16 20.1412C13.6941 20.1412 11.8588 18.3059 11.8588 16ZM13.7412 16C13.7412 17.2235 14.7765 18.2588 16 18.2588C17.2235 18.2588 18.2588 17.2235 18.2588 16C18.2588 14.7765 17.2235 13.7412 16 13.7412C14.7765 13.7412 13.7412 14.7765 13.7412 16Z" fill="black"/>
</svg>
