<svg width="32" height="32" viewBox="0 0 32 32" fill="none" xmlns="http://www.w3.org/2000/svg">
<rect width="32" height="32" fill="white"/>
<path fill-rule="evenodd" clip-rule="evenodd" d="M24 11.55C23.4 11.8 22.8 12 22.1 12.05C22.8 11.65 23.3 11 23.55 10.25C22.9 10.65 22.2 10.9 21.45 11.05C20.85 10.4 20 10 19.1 10C17.3 10 15.8 11.45 15.8 13.3C15.8 13.55 15.85 13.8 15.9 14.05C13.15 13.9 10.75 12.6 9.15 10.6C8.85 11.1 8.7 11.65 8.7 12.25C8.7 13.4 9.3 14.4 10.15 15C9.6 15 9.1 14.85 8.65 14.6V14.65C8.65 16.25 9.8 17.55 11.3 17.85C11 17.9 10.75 17.95 10.45 17.95C10.25 17.95 10.05 17.95 9.85 17.9C10.25 19.2 11.5 20.15 12.9 20.2C11.8 21.1 10.35 21.6 8.8 21.6C8.55 21.6 8.25 21.6 8 21.55C9.45 22.5 11.2 23 13.05 23C19.1 23 22.4 18 22.4 13.65C22.4 13.5 22.4 13.35 22.4 13.25C23 12.8 23.55 12.2 24 11.55Z" fill="black"/>
</svg>
